<svg id="Layer_1" width="40px" height="40px" data-name="Layer 1" xmlns="http://www.w3.org/2000/svg" xmlns:xlink="http://www.w3.org/1999/xlink" viewBox="0 0 260.27 298.93">
  <defs>
    <style>
      .cls-1 {
        fill: url(#linear-gradient);
      }

      .cls-2 {
        fill: url(#linear-gradient-2);
      }

      .cls-3 {
        fill: url(#linear-gradient-3);
      }

      .cls-4 {
        fill: url(#linear-gradient-4);
      }

      .cls-5 {
        fill: url(#linear-gradient-5);
      }

      .cls-6 {
        fill: url(#linear-gradient-6);
      }

      .cls-7 {
        fill: url(#linear-gradient-7);
      }

      .cls-8 {
        fill: url(#linear-gradient-8);
      }

      .cls-9 {
        fill: url(#linear-gradient-9);
      }

      .cls-10 {
        fill: url(#linear-gradient-10);
      }

      .cls-11 {
        fill: url(#linear-gradient-11);
      }

      .cls-12 {
        fill: url(#linear-gradient-12);
      }

      .cls-13 {
        fill: url(#linear-gradient-13);
      }

      .cls-14 {
        fill: url(#linear-gradient-14);
      }

      .cls-15 {
        fill: url(#linear-gradient-15);
      }

      .cls-16 {
        fill: url(#linear-gradient-16);
      }
    </style>
    <linearGradient id="linear-gradient" x1="194.38" y1="88.11" x2="194.38" y2="345.63" gradientUnits="userSpaceOnUse">
      <stop offset="0" stop-color="#02ccc0" />
      <stop offset="1" stop-color="#9d09ff" />
    </linearGradient>
    <linearGradient id="linear-gradient-2" x1="326.6" y1="88.11" x2="326.6" y2="345.63" xlink:href="#linear-gradient" />
    <linearGradient id="linear-gradient-3" x1="171.07" y1="170" x2="171.07" y2="170" xlink:href="#linear-gradient" />
    <linearGradient id="linear-gradient-4" x1="216.13" y1="88.11" x2="216.13" y2="345.63" xlink:href="#linear-gradient" />
    <linearGradient id="linear-gradient-5" x1="304.25" y1="88.11" x2="304.25" y2="345.63" xlink:href="#linear-gradient" />
    <linearGradient id="linear-gradient-6" x1="329.22" y1="88.11" x2="329.22" y2="345.63" xlink:href="#linear-gradient" />
    <linearGradient id="linear-gradient-7" x1="305.9" y1="88.11" x2="305.9" y2="345.63" xlink:href="#linear-gradient" />
    <linearGradient id="linear-gradient-8" x1="134.39" y1="-18.42" x2="134.39" y2="239.1" xlink:href="#linear-gradient" />
    <linearGradient id="linear-gradient-9" x1="36.35" y1="-18.42" x2="36.35" y2="239.1" xlink:href="#linear-gradient" />
    <linearGradient id="linear-gradient-10" x1="194.56" y1="88.11" x2="194.56" y2="345.63" xlink:href="#linear-gradient" />
    <linearGradient id="linear-gradient-11" x1="134.83" y1="88.11" x2="134.83" y2="345.63" xlink:href="#linear-gradient" />
    <linearGradient id="linear-gradient-12" x1="230.86" y1="378.8" x2="230.86" y2="378.8" xlink:href="#linear-gradient" />
    <linearGradient id="linear-gradient-13" x1="216.88" y1="88.11" x2="216.88" y2="345.63" xlink:href="#linear-gradient" />
    <linearGradient id="linear-gradient-14" x1="179.74" y1="88.11" x2="179.74" y2="345.63" xlink:href="#linear-gradient" />
    <linearGradient id="linear-gradient-15" x1="35.62" y1="-18.42" x2="35.62" y2="239.1" xlink:href="#linear-gradient" />
    <linearGradient id="linear-gradient-16" x1="136.97" y1="-18.42" x2="136.97" y2="239.1" xlink:href="#linear-gradient" />
  </defs>
  <path class="cls-1" d="M251.54,127.5c.2-6.48.1-13,.1-20.31-43.33,26.65-71.42,42.29-114.55,68.82,5.82,3.56,11,6.93,16.46,9.92" transform="translate(-125.87 -106.53)" />
  <path class="cls-2" d="M269.11,126.84c-.2-6.48-.1-13-.1-20.31,43.32,26.65,72.07,44.27,115.21,70.8-5.83,3.56-11.05,6.93-16.46,9.92" transform="translate(-125.87 -106.53)" />
  <path class="cls-3" d="M171.07,170" transform="translate(-125.87 -106.53)" />
  <path class="cls-4" d="M197.17,212.49c-5.36-3.11-10.6-6.45-16.42-10.05l70.75-43.22c0,7.3.07,13.78-.08,20.26" transform="translate(-125.87 -106.53)" />
  <path class="cls-5" d="M323.21,212.49c5.36-3.11,10.6-6.45,16.42-10.05l-70.75-43.22c0,7.3-.07,13.78.08,20.26" transform="translate(-125.87 -106.53)" />
  <path class="cls-6" d="M272.31,385.16c-.05,6.49.21,13,.39,20.31,42.66-27.71,71-46,113.43-73.61-5.9-3.42-11.21-6.66-16.69-9.51" transform="translate(-125.87 -106.53)" />
  <path class="cls-7" d="M324.28,298.21c5.44,3,10.76,6.19,16.66,9.64L271.28,352.8c-.18-7.3-.41-13.78-.42-20.25" transform="translate(-125.87 -106.53)" />
  <polygon class="cls-8" points="125.8 52.62 125.67 20.97 134.79 15.09 143.12 20.71 143.12 52.62 134.4 47.69 125.8 52.62" />
  <polygon class="cls-9" points="46.05 110.99 18.56 95.3 18.02 84.47 27.04 80.05 54.69 95.98 46.06 101.08 46.05 110.99" />
  <path class="cls-10" d="M152.85,332c-5.66,3.18-11.16,6.63-17.43,10.42,45.23,23.28,73.15,39.21,118.17,62.39,0-6.83.22-13,0-19.22" transform="translate(-125.87 -106.53)" />
  <path class="cls-11" d="M143.19,317.26c-5.45,3.54-11.06,6.81-17.32,10.61.36-50.87.56-84.59.92-135.22,6.07,3.13,11.66,5.86,17,8.94" transform="translate(-125.87 -106.53)" />
  <path class="cls-12" d="M230.86,378.8" transform="translate(-125.87 -106.53)" />
  <path class="cls-13" d="M253.71,334.48c.11,6.2,0,12.41-.1,19.25L180,315.57c6.25-3.78,11.76-7.2,17.38-10.41" transform="translate(-125.87 -106.53)" />
  <path class="cls-14" d="M188.46,226.64c-5.44-3-11-5.73-17.1-8.85-.11,27.75-.23,55-.35,82.91,6.24-3.77,11.83-7.07,17.29-10.56" transform="translate(-125.87 -106.53)" />
  <polygon class="cls-15" points="54 208.93 26.98 225.43 17.24 220.67 17.73 210.63 45.03 194.12 45.33 204.13 54 208.93" />
  <polygon class="cls-16" points="145.22 246.95 146.03 278.59 137.04 284.66 128.59 279.22 127.91 247.32 136.74 252.06 145.22 246.95" />
</svg>